<svg xmlns="http://www.w3.org/2000/svg" width="33" height="32" fill="none"><path fill="#656F77" d="M29.1 22.08l-8-4.44a1.22 1.22 0 00-1.3.06c-.2.14-.35.32-.46.54-.11.22-.17.47-.17.72v2.76a5.3 5.3 0 01-2.88-2.1A6.33 6.33 0 0115.17 16c0-1.31.4-2.59 1.12-3.62a5.3 5.3 0 012.88-2.1v2.76c0 .25.06.5.17.72.1.22.27.4.46.54a1.22 1.22 0 001.3.07l8-4.45c.22-.13.4-.32.53-.55a1.6 1.6 0 000-1.56 1.4 1.4 0 00-.53-.54l-8-4.45a1.22 1.22 0 00-1.3.07c-.2.13-.35.32-.46.54-.11.22-.17.47-.17.72v3.1c-1.08.2-2.11.64-3.03 1.3a8.5 8.5 0 00-2.3 2.55 8.38 8.38 0 00-2.89-2.93 7.37 7.37 0 00-3.78-1.06H4.5c-.35 0-.7.16-.94.43-.25.28-.4.66-.4 1.05 0 .4.15.77.4 1.05s.59.43.94.43h2.67c1.41 0 2.77.63 3.77 1.74A6.28 6.28 0 0112.5 16c0 1.57-.56 3.08-1.56 4.2a5.08 5.08 0 01-3.77 1.73H4.5c-.35 0-.7.15-.94.43-.25.28-.4.66-.4 1.05 0 .4.15.77.4 1.05.25.27.59.43.94.43h2.67c1.32 0 2.62-.37 3.78-1.06a8.38 8.38 0 002.88-2.93 8.5 8.5 0 002.31 2.54c.92.67 1.95 1.11 3.03 1.32v3.1c0 .25.06.5.17.71.1.22.27.4.46.54a1.23 1.23 0 001.3.07l8-4.45c.22-.12.4-.31.53-.54a1.6 1.6 0 000-1.56 1.4 1.4 0 00-.53-.55z"/></svg>