<svg xmlns="http://www.w3.org/2000/svg" width="21" height="20" fill="none"><path fill="#ACB8C2" stroke="#ACB8C2" stroke-width=".3" d="M10.501.35C5.176.35.85 4.674.85 9.999c0 5.325 4.326 9.651 9.651 9.651s9.649-4.326 9.649-9.651S15.826.35 10.501.35zm0 1.164a8.477 8.477 0 018.485 8.485 8.48 8.48 0 01-8.485 8.487A8.481 8.481 0 012.014 10 8.48 8.48 0 0110.5 1.514z"/><path fill="#ACB8C2" stroke="#ACB8C2" stroke-width=".3" d="M5.25 8.126a.582.582 0 01.998.412m-.999-.412l.85.411m-.85-.411a.582.582 0 00-.164.412m.164-.412l-.014.411m1.013.001v.001l-.15-.002m.15.001s0 0 0 0h-.15m.15 0c0 .413.323.735.736.735a.73.73 0 00.736-.735m-1.622 0c0 .495.39.885.886.885a.88.88 0 00.886-.886m-.15.001v.001l.15-.002m-.15.001s0 0 0 0h.15m-.15 0a.582.582 0 111.164 0m-1.014 0h.864m.15 0v.001l-.15-.002m.15.001s0 0 0 0h-.15m.15 0a1.906 1.906 0 01-1.9 1.899 1.906 1.906 0 01-1.9-1.899m3.65 0c0 .961-.79 1.749-1.75 1.749-.961 0-1.75-.789-1.75-1.75m-.15.001v.001l.15-.002m-.15.001s0 0 0 0h.15M12.28 8.126a.582.582 0 011 .412m-1-.412l.85.411m-.85-.411a.582.582 0 00-.164.412m.165-.412l-.015.411m1.014.001v.001l-.15-.002m.15.001s0 0 0 0h-.15m.15 0a.73.73 0 00.736.735.727.727 0 00.736-.735m-1.622 0a.88.88 0 00.886.885c.496 0 .886-.39.886-.886m-.15.001v.001l.15-.002m-.15.001s0 0 0 0h.15m-.15 0a.581.581 0 111.163 0m-1.013 0h.863m.15 0v.001l-.15-.002m.15.001s0 0 0 0h-.15m.15 0a1.906 1.906 0 01-1.9 1.899 1.906 1.906 0 01-1.899-1.899m3.65 0c0 .96-.789 1.749-1.75 1.749-.96 0-1.75-.788-1.75-1.75m-.15.001v.001l.15-.002m-.15.001s0 0 0 0h.15M15.356 12.312h0a.581.581 0 01.48.888h-.001l-.127-.079a6.074 6.074 0 01-10.414 0l10.062-.809zm0 0a.582.582 0 00-.518.288 5.054 5.054 0 01-4.337 2.456A5.048 5.048 0 016.164 12.6a.582.582 0 10-.998.598l10.19-.887z"/></svg>